<?xml version="1.0" encoding="utf-8"?>
<!-- Generator: Adobe Illustrator 24.1.3, SVG Export Plug-In . SVG Version: 6.00 Build 0)  -->
<svg version="1.1" id="Слой_1" xmlns="http://www.w3.org/2000/svg" xmlns:xlink="http://www.w3.org/1999/xlink" x="0px" y="0px"
	 width="48px" height="40px" viewBox="0 0 48 40" enable-background="new 0 0 48 40" xml:space="preserve">
<path fill="#816A7E" d="M36.724,12.333H25.957c0,0-0.008,0-0.025,0c-0.274,0-2.747-0.053-3.89-1.958
	c-0.979-1.631-3.589-1.631-3.589-1.631s-4.895,0-7.178,0c-2.611,0-2.611,2.283-2.611,2.283v17.946c0,2.283,1.957,2.283,1.957,2.283
	h0.654c0,0,23.49,0,25.775,0c2.283,0,2.283-2.609,2.283-2.609s0-11.092,0-13.703C39.335,12.333,36.724,12.333,36.724,12.333z
	 M35.335,27.256h-22.67V12.744h5.789c0.011,0,0.227,0.026,0.403,0.07c1.769,2.585,4.778,3.519,7.076,3.519l0.069,0h9.334V27.256z"/>
</svg>
