<?xml version="1.0" encoding="utf-8"?>
<!-- Generator: Adobe Illustrator 22.0.1, SVG Export Plug-In . SVG Version: 6.00 Build 0)  -->
<svg version="1.1" id="Слой_1" xmlns="http://www.w3.org/2000/svg" xmlns:xlink="http://www.w3.org/1999/xlink" x="0px" y="0px"
	 viewBox="0 0 48 40" style="enable-background:new 0 0 48 40;" xml:space="preserve">
<style type="text/css">
	.st0{fill:#FFFFFF;}
</style>
<g>
	<path class="st0" d="M36.7,28.1c-3.5-3.5-4.6-8.1-4.6-11.6v-1.2c0-3.7-2.4-6.8-5.8-7.8V7.3C26.3,6,25.3,5,24,5
		c-1.3,0-2.3,1-2.3,2.3v0.3c-3.3,1-5.8,4.1-5.8,7.8v1.2c0,3.5-1.2,8.1-4.6,11.6c-3.5,3.5,0,3.5,0,3.5H24h12.7
		C36.7,31.6,40.2,31.6,36.7,28.1z M16.8,27.6c2.8-4.4,3.1-9,3.1-11v-1.2c0-1.8,1.2-3.4,2.9-3.9l1.2-0.3l1.2,0.3
		c1.7,0.5,2.9,2.1,2.9,3.9v1.2c0,2.1,0.4,6.6,3.1,11H16.8z"/>
	<path class="st0" d="M22.8,35h2.3c1.3,0,2.3-1,2.3-2.3h-6.9C20.5,34,21.6,35,22.8,35z"/>
</g>
</svg>
