<?xml version="1.0" encoding="utf-8"?>
<!-- Generator: Adobe Illustrator 22.0.1, SVG Export Plug-In . SVG Version: 6.00 Build 0)  -->
<svg version="1.1" id="Слой_1" xmlns="http://www.w3.org/2000/svg" xmlns:xlink="http://www.w3.org/1999/xlink" x="0px" y="0px"
	 viewBox="0 0 48 40" style="enable-background:new 0 0 48 40;" xml:space="preserve">
<style type="text/css">
	.st0{fill:#FFFFFF;}
</style>
<path class="st0" d="M39.1,16.3v-3.6c0-2.2-1.8-4-4-4h-23c-2.2,0-4,1.8-4,4v14.6c0,2.2,1.8,4,4,4h23c2.2,0,4-1.8,4-4v-3.6
	c0.5-0.3,0.7-0.8,0.7-1.4v-4.5C39.9,17.2,39.6,16.6,39.1,16.3z M12.1,27.3V12.7h23l0,3.3h-5.7c-1,0-1.7,0.8-1.7,1.7v4.5
	c0,1,0.8,1.7,1.7,1.7h5.7l0,3.3L12.1,27.3L12.1,27.3z M33.2,20c0,0.9-0.7,1.6-1.6,1.6c-0.9,0-1.6-0.7-1.6-1.6c0-0.9,0.7-1.6,1.6-1.6
	C32.5,18.4,33.2,19.1,33.2,20z"/>
</svg>
