<?xml version="1.0" encoding="utf-8"?>
<!-- Generator: Adobe Illustrator 24.1.3, SVG Export Plug-In . SVG Version: 6.00 Build 0)  -->
<svg version="1.1" id="Слой_1" xmlns="http://www.w3.org/2000/svg" xmlns:xlink="http://www.w3.org/1999/xlink" x="0px" y="0px"
	 width="48px" height="40px" viewBox="0 0 48 40" enable-background="new 0 0 48 40" xml:space="preserve">
<path fill="#FFFFFF" d="M26.939,21.072c3.169-1.194,5.433-4.248,5.433-7.829c0-4.617-3.756-8.373-8.372-8.373
	c-4.617,0-8.373,3.756-8.373,8.373c0,3.581,2.264,6.635,5.433,7.829C14.1,21.974,8.701,27.928,8.701,35.13h4
	c0-5.619,4.572-10.19,10.191-10.19h2.216c5.62,0,10.191,4.571,10.191,10.19h4C39.299,27.928,33.9,21.975,26.939,21.072z
	 M19.628,13.242c0-2.411,1.961-4.373,4.373-4.373c2.411,0,4.372,1.961,4.372,4.373c0,2.411-1.961,4.372-4.372,4.372
	C21.589,17.615,19.628,15.653,19.628,13.242z"/>
</svg>
