<?xml version="1.0" encoding="utf-8"?>
<!-- Generator: Adobe Illustrator 24.1.3, SVG Export Plug-In . SVG Version: 6.00 Build 0)  -->
<svg version="1.1" id="Слой_1" xmlns="http://www.w3.org/2000/svg" xmlns:xlink="http://www.w3.org/1999/xlink" x="0px" y="0px"
	 width="48px" height="40px" viewBox="0 0 48 40" enable-background="new 0 0 48 40" xml:space="preserve">
<path fill="#816A7E" d="M27.265,22.747c2.641-1.203,4.503-3.815,4.628-6.872h2.703v-4h-1.229C32.513,7.482,28.64,4.152,24,4.152
	s-8.513,3.329-9.367,7.724h-1.229v4h2.703c0.124,3.057,1.986,5.668,4.628,6.872c-6.272,1.069-11.067,6.528-11.067,13.1h4
	c0-5.13,4.174-9.304,9.304-9.304h2.056c5.13,0,9.304,4.174,9.304,9.304h4C38.332,29.276,33.537,23.816,27.265,22.747z M24,8.152
	c2.419,0,4.476,1.559,5.232,3.724H18.768C19.524,9.712,21.581,8.152,24,8.152z M27.876,15.876c-0.167,2.002-1.831,3.585-3.876,3.585
	s-3.709-1.583-3.876-3.585H27.876z"/>
</svg>
