<?xml version="1.0" encoding="utf-8"?>
<!-- Generator: Adobe Illustrator 24.1.3, SVG Export Plug-In . SVG Version: 6.00 Build 0)  -->
<svg version="1.1" id="Слой_1" xmlns="http://www.w3.org/2000/svg" xmlns:xlink="http://www.w3.org/1999/xlink" x="0px" y="0px"
	 width="48px" height="40px" viewBox="0 0 48 40" enable-background="new 0 0 48 40" xml:space="preserve">
<path fill="#816A7E" d="M26.94,20.313c3.168-1.194,5.432-4.248,5.432-7.829c0-4.617-3.756-8.373-8.373-8.373
	s-8.373,3.756-8.373,8.373c0,3.581,2.264,6.635,5.432,7.829c-6.961,0.903-12.359,6.856-12.359,14.059h4
	c0-5.584,4.516-10.129,10.088-10.186l-2.11,8.703l3.25,3l3.392-3l-2.11-8.703c5.571,0.056,10.088,4.601,10.088,10.186h4
	C39.299,27.169,33.901,21.216,26.94,20.313z M19.627,12.483c0-2.411,1.961-4.373,4.373-4.373s4.373,1.961,4.373,4.373
	S26.411,16.856,24,16.856S19.627,14.894,19.627,12.483z"/>
</svg>
