<?xml version="1.0" encoding="utf-8"?>
<!-- Generator: Adobe Illustrator 24.1.3, SVG Export Plug-In . SVG Version: 6.00 Build 0)  -->
<svg version="1.1" id="Слой_1" xmlns="http://www.w3.org/2000/svg" xmlns:xlink="http://www.w3.org/1999/xlink" x="0px" y="0px"
	 width="48px" height="40px" viewBox="0 0 48 40" enable-background="new 0 0 48 40" xml:space="preserve">
<g>
	<path fill="#816A7E" d="M26.702,13.978l6.112-6.112l-2.828-2.828l-6.029,6.029l-5.943-5.942l-2.828,2.828l6.044,6.044
		c-4.547,1.222-7.901,5.363-7.901,10.295c0,5.894,4.779,10.671,10.672,10.671s10.67-4.777,10.67-10.671
		C34.671,19.334,31.285,15.176,26.702,13.978z M24.001,30.962c-3.679,0-6.672-2.993-6.672-6.671s2.993-6.671,6.672-6.671
		c3.678,0,6.67,2.993,6.67,6.671S27.679,30.962,24.001,30.962z"/>
	<polygon fill="#816A7E" points="23.945,19.36 22.489,22.432 19.13,22.973 21.601,25.309 21.077,28.669 24.062,27.04 27.098,28.578 
		26.471,25.234 28.87,22.824 25.498,22.387 	"/>
</g>
</svg>
