<?xml version="1.0" encoding="utf-8"?>
<!-- Generator: Adobe Illustrator 24.1.3, SVG Export Plug-In . SVG Version: 6.00 Build 0)  -->
<svg version="1.1" id="Слой_1" xmlns="http://www.w3.org/2000/svg" xmlns:xlink="http://www.w3.org/1999/xlink" x="0px" y="0px"
	 width="48px" height="40px" viewBox="0 0 48 40" enable-background="new 0 0 48 40" xml:space="preserve">
<g>
	<path fill="#816A7E" d="M10.046,24.812v-6.803h20.999v2.574h4v-9.576c0-2.259-1.838-4.098-4.098-4.098H10.144
		c-2.26,0-4.098,1.838-4.098,4.098v13.805c0,2.259,1.838,4.098,4.098,4.098h10.976v-4H10.144
		C10.089,24.909,10.046,24.866,10.046,24.812z M10.144,10.909h20.804c0.054,0,0.098,0.044,0.098,0.098v2.002H10.046v-2.002
		C10.046,10.953,10.09,10.909,10.144,10.909z"/>
	<polygon fill="#816A7E" points="39.083,18.102 30.061,27.399 25.93,23.291 23.109,26.127 30.111,33.091 41.954,20.888 	"/>
</g>
</svg>
