<?xml version="1.0" encoding="utf-8"?>
<!-- Generator: Adobe Illustrator 24.1.3, SVG Export Plug-In . SVG Version: 6.00 Build 0)  -->
<svg version="1.1" id="Слой_1" xmlns="http://www.w3.org/2000/svg" xmlns:xlink="http://www.w3.org/1999/xlink" x="0px" y="0px"
	 width="48px" height="40px" viewBox="0 0 48 40" enable-background="new 0 0 48 40" xml:space="preserve">
<g>
	<g>
		<path fill="#816A7E" d="M23.995,14.254c-0.037,0-0.073,0.005-0.109,0.006c0.649,0.568,1.068,1.393,1.068,2.324
			c0,1.712-1.388,3.1-3.1,3.1c-1.428,0-2.618-0.971-2.978-2.285c-0.398,0.782-0.627,1.664-0.627,2.602
			c0,3.174,2.572,5.746,5.746,5.746c3.173,0,5.746-2.572,5.746-5.746C29.742,16.827,27.169,14.254,23.995,14.254z"/>
	</g>
	<g>
		<g>
			<path fill="#816A7E" d="M37.086,21.998c-0.6-1.031-1.323-1.993-2.15-2.859c-2.894-3.032-6.795-4.701-10.983-4.701
				c-5.326,0-10.329,2.847-13.058,7.43l-3.438-2.046c3.446-5.789,9.767-9.384,16.495-9.384c5.293,0,10.221,2.109,13.876,5.939
				c1.044,1.093,1.958,2.308,2.715,3.61L37.086,21.998z"/>
		</g>
		<g>
			<path fill="#816A7E" d="M23.952,29.562c-6.607,0-12.928-3.722-16.495-9.713l3.438-2.046c2.849,4.786,7.853,7.759,13.058,7.759
				c4.188,0,8.09-1.669,10.983-4.701c0.827-0.867,1.551-1.829,2.15-2.859l3.457,2.011c-0.757,1.302-1.671,2.517-2.715,3.611
				C34.173,27.453,29.245,29.562,23.952,29.562z"/>
		</g>
	</g>
</g>
</svg>
