<?xml version="1.0" encoding="utf-8"?>
<!-- Generator: Adobe Illustrator 24.1.3, SVG Export Plug-In . SVG Version: 6.00 Build 0)  -->
<svg version="1.1" id="Слой_1" xmlns="http://www.w3.org/2000/svg" xmlns:xlink="http://www.w3.org/1999/xlink" x="0px" y="0px"
	 width="48px" height="40px" viewBox="0 0 48 40" enable-background="new 0 0 48 40" xml:space="preserve">
<g>
	<path fill="#816A7E" d="M36.72,28.095c-3.468-3.47-4.625-8.095-4.625-11.564v-1.156c0-3.667-2.439-6.76-5.782-7.755V7.28
		c0-1.277-1.035-2.313-2.313-2.313c-1.276,0-2.313,1.035-2.313,2.313v0.34c-3.342,0.995-5.782,4.088-5.782,7.755v1.156
		c0,3.469-1.155,8.094-4.625,11.564c-3.468,3.469,0,3.469,0,3.469H24h12.72C36.72,31.564,40.189,31.564,36.72,28.095z
		 M16.784,27.564c2.765-4.413,3.12-8.981,3.12-11.032v-1.156c0-1.796,1.202-3.408,2.923-3.921l1.171-0.349l1.172,0.349
		c1.721,0.512,2.923,2.124,2.923,3.921v1.156c0,2.051,0.356,6.618,3.121,11.032H16.784z"/>
	<path fill="#816A7E" d="M22.844,35.032h2.313c1.276,0,2.313-1.035,2.313-2.313h-6.938C20.532,33.997,21.566,35.032,22.844,35.032z"
		/>
</g>
</svg>
