<?xml version="1.0" encoding="utf-8"?>
<!-- Generator: Adobe Illustrator 24.1.3, SVG Export Plug-In . SVG Version: 6.00 Build 0)  -->
<svg version="1.1" id="Слой_1" xmlns="http://www.w3.org/2000/svg" xmlns:xlink="http://www.w3.org/1999/xlink" x="0px" y="0px"
	 width="48px" height="40px" viewBox="0 0 48 40" enable-background="new 0 0 48 40" xml:space="preserve">
<path fill="#816A7E" d="M40.112,19.38c0-6.846-7.214-12.393-16.112-12.393c-8.899,0-16.112,5.548-16.112,12.393
	S15.101,31.774,24,31.774c2.015,0,3.936-0.297,5.715-0.816l8.616,2.056l-1.595-6.063C38.845,24.855,40.112,22.234,40.112,19.38z
	 M33.917,24.114l-1.635,1.625l0.482,1.834l-2.121-0.506l-1.031-0.246l-1.018,0.297c-1.492,0.435-3.037,0.656-4.595,0.656
	c-6.566,0-12.112-3.844-12.112-8.394c0-4.55,5.547-8.393,12.112-8.393c6.566,0,12.112,3.844,12.112,8.393
	C36.112,21.489,34.919,23.119,33.917,24.114z"/>
</svg>
