<?xml version="1.0" encoding="utf-8"?>
<!-- Generator: Adobe Illustrator 24.1.3, SVG Export Plug-In . SVG Version: 6.00 Build 0)  -->
<svg version="1.1" id="Слой_1" xmlns="http://www.w3.org/2000/svg" xmlns:xlink="http://www.w3.org/1999/xlink" x="0px" y="0px"
	 width="48px" height="40px" viewBox="0 0 48 40" enable-background="new 0 0 48 40" xml:space="preserve">
<path fill="#816A7E" d="M39.131,16.334v-3.619c0-2.206-1.794-4-4-4h-23.01c-2.206,0-4,1.794-4,4v14.569c0,2.206,1.794,4,4,4h23.01
	c2.206,0,4-1.794,4-4v-3.619c0.451-0.311,0.748-0.83,0.748-1.42v-4.492C39.879,17.165,39.582,16.645,39.131,16.334z M12.121,27.284
	V12.716h23.01l0.001,3.314h-5.706c-0.953,0-1.725,0.772-1.725,1.725v4.492c0,0.953,0.772,1.725,1.725,1.725h5.708l0.001,3.314
	H12.121z M33.19,20c0,0.909-0.737,1.647-1.647,1.647c-0.909,0-1.647-0.737-1.647-1.647c0-0.909,0.737-1.647,1.647-1.647
	C32.452,18.353,33.19,19.09,33.19,20z"/>
</svg>
