<svg id="Слой_1" data-name="Слой 1" xmlns="http://www.w3.org/2000/svg" viewBox="0 0 1024 1026.58933">
  <defs>
    <style>
      .cls-1 {
        fill: #cdccd1;
      }

      .cls-2 {
        fill: #fefefe;
      }
    </style>
  </defs>
  <title>profile</title>
  <g>
    <path class="cls-1" d="M516.52173,1026.58933C223.47372,1026.06336,1.97584,797.18393.01321,514.708-1.99013,226.371,224.18014,2.15473,506.43184.016c293.51008-2.224,520.44,227.51994,517.54069,522.47655C1021.24118,800.37023,801.64246,1020.59,516.52173,1026.58933ZM504.306,996.01782c28.78958-.48253,48.84249-.19633,68.92117-2.7715a539.03043,539.03043,0,0,0,87.39475-18.76787c26.93867-8.13772,52.92808-18.971,77.27524-33.4519,14.29192-8.50035,29.63506-15.36412,43.37225-24.64184,42.35449-28.605,78.842-63.73288,111.419-103.03572,3.479-4.19715,4.26683-6.68331-.91556-9.98682-12.22928-7.79543-23.546-17.26563-36.368-23.84359-41.63392-21.35875-85.49419-38.58408-124.23673-65.26373-19.35041-13.32553-40.3056-25.31653-52.48546-46.95607-7.95035-14.1252-21.56719-20.62986-36.34924-24.15335-23.60067-5.62532-31.34244-18.61853-23.0901-41.20049,1.31944-3.61061,3.29675-6.97528,4.76365-10.53856,11.48-27.88675,24.93873-54.96117,29.29293-85.47478,1.92075-13.45964,2.09272-27.76192,13.85236-38.84169,21.467-20.2259,24.79936-46.503,11.02336-73.52856a28.12321,28.12321,0,0,1-2.00387-20.0425c2.04017-8.08587,1.78186-16.11937,2.09084-24.22362.94855-24.88354-1.56581-49.538-5.48053-74.02684-6.89833-43.153-29.65211-74.61087-70.60451-91.23571a275.98325,275.98325,0,0,0-113.9104-20.20292c-45.80043,1.45476-81.63894,22.47235-108.28717,57.29231-31.474,41.12565-41.501,89.24022-34.06432,140.54357,2.31065,15.94025,4.47231,31.20272-6.37118,45.32509-3.1337,4.08132-1.49271,10.02909-.57605,15.07793,1.29457,7.13032,3.33073,14.13746,4.40337,21.29418,2.239,14.93938,7.81993,27.93954,20.163,37.3201,4.60123,3.49681,5.01847,8.42643,5.76815,13.6426,2.74509,19.09941,6.03482,38.64336,15.74439,55.17176,12.91957,21.99267,19.76746,46.19878,29.44212,69.33232,4.55641,10.895-.9002,18.40013-12.39415,22.11743-12.19459,3.944-24.29252,8.18909-36.50522,12.07467-8.369,2.66276-14.5558,6.53341-14.82362,16.73235-.17873,6.80468-4.96139,11.95714-10.115,15.82111-10.17144,7.6262-20.58265,14.98789-31.31078,21.804-19.45863,12.363-39.00552,24.57318-59.565,35.137-15.11583,7.76659-28.91126,18.71069-44.6718,24.4738-24.2085,8.85232-47.90851,17.83174-69.208,32.80753-7.50007,5.27329-7.69153,9.29375-2.42091,15.32115,21.61386,24.717,44.10155,48.38927,69.31255,69.72069,40.54535,34.30593,85.79778,60.23956,134.6973,79.91443C393.6876,987.36709,452.41219,997.22138,504.306,996.01782Z"/>
    <path class="cls-2" d="M504.306,996.01782c-51.89381,1.20356-110.6184-8.65073-166.8212-31.264-48.89952-19.67487-94.15195-45.6085-134.6973-79.91443-25.211-21.33142-47.69869-45.00366-69.31255-69.72069-5.27062-6.0274-5.07916-10.04786,2.42091-15.32115,21.29948-14.97579,44.99949-23.95521,69.208-32.80753,15.76054-5.76311,29.556-16.70721,44.6718-24.4738,20.55951-10.56385,40.1064-22.774,59.565-35.137,10.72813-6.81616,21.13934-14.17785,31.31078-21.804,5.15364-3.864,9.9363-9.01643,10.115-15.82111.26782-10.19894,6.45458-14.06959,14.82362-16.73235,12.2127-3.88558,24.31063-8.13065,36.50522-12.07467,11.49395-3.7173,16.95056-11.22244,12.39415-22.11743-9.67466-23.13354-16.52255-47.33965-29.44212-69.33232-9.70957-16.5284-12.9993-36.07235-15.74439-55.17176-.74968-5.21617-1.16692-10.14579-5.76815-13.6426-12.34308-9.38056-17.924-22.38072-20.163-37.3201-1.07264-7.15672-3.1088-14.16386-4.40337-21.29418-.91666-5.04884-2.55765-10.99661.57605-15.07793,10.84349-14.12237,8.68183-29.38484,6.37118-45.32509C338.479,310.36229,348.506,262.24772,379.98,221.12207c26.64823-34.82,62.48674-55.83755,108.28717-57.29231a275.98325,275.98325,0,0,1,113.9104,20.20292c40.9524,16.62484,63.70618,48.08272,70.60451,91.23571,3.91472,24.4888,6.42908,49.1433,5.48053,74.02684-.309,8.10425-.05067,16.13775-2.09084,24.22362a28.12321,28.12321,0,0,0,2.00387,20.0425c13.776,27.0256,10.44366,53.30266-11.02336,73.52856-11.75964,11.07977-11.93161,25.38205-13.85236,38.84169-4.3542,30.51361-17.81289,57.588-29.29293,85.47478-1.4669,3.56328-3.44421,6.928-4.76365,10.53856-8.25234,22.582-.51057,35.57517,23.0901,41.20049,14.78205,3.52349,28.39889,10.02815,36.34924,24.15335,12.17986,21.63954,33.135,33.63054,52.48546,46.95607,38.74254,26.67965,82.60281,43.905,124.23673,65.26373,12.822,6.578,24.13874,16.04816,36.368,23.84359,5.18239,3.30351,4.39457,5.78967.91556,9.98682-32.577,39.30284-69.06454,74.43076-111.419,103.03572-13.73719,9.27772-29.08033,16.14149-43.37225,24.64184-24.34716,14.48094-50.33657,25.31418-77.27524,33.4519a539.03043,539.03043,0,0,1-87.39475,18.76787C553.14849,995.82149,533.09558,995.53529,504.306,996.01782Z"/>
  </g>
</svg>
